<svg width="89" height="30" viewBox="0 0 89 30" fill="none" xmlns="http://www.w3.org/2000/svg">
<path d="M72.9385 13.3878C74.2044 13.3878 75.2306 12.3616 75.2306 11.0957C75.2306 9.82985 74.2044 8.80365 72.9385 8.80365C71.6726 8.80365 70.6464 9.82985 70.6464 11.0957C70.6464 12.3616 71.6726 13.3878 72.9385 13.3878Z" fill="#4CADA9"/>
<path d="M51.4523 15.1293C47.4599 15.1293 44.2234 18.3657 44.2234 22.3581C44.2234 26.3506 47.4599 29.587 51.4523 29.587C55.4448 29.587 58.6812 26.3506 58.6812 22.3581C58.6812 18.3657 55.4448 15.1293 51.4523 15.1293ZM51.4523 26.4544C49.1892 26.4544 47.356 24.6213 47.356 22.3581C47.356 20.095 49.1892 18.2619 51.4523 18.2619C53.7154 18.2619 55.5486 20.095 55.5486 22.3581C55.5486 24.6213 53.7154 26.4544 51.4523 26.4544Z" fill="#007077"/>
<path d="M69.1296 15.2331C69.1296 15.2331 69.1296 15.2331 69.1296 15.2283C69.1296 15.2283 69.1296 15.2282 69.1296 15.2258C68.8736 14.593 67.695 14.8008 67.695 14.8008H67.6974C67.4534 14.837 67.2143 14.8901 66.9825 14.965C66.5284 15.1099 66.1009 15.3152 65.7024 15.5785C65.3038 15.8417 64.9488 16.1605 64.6396 16.5325C64.6082 16.5711 64.5817 16.6025 64.5551 16.6339C64.5551 16.6339 64.5044 16.6943 64.4271 16.7909C64.3353 16.9069 64.3088 16.9455 64.3063 16.9527C64.2218 17.0687 64.1252 17.2088 64.0407 17.3537V15.1316H62.1712H61.0602C60.5723 15.1316 60.1738 15.5302 60.1738 16.018V28.3262C60.1738 28.8141 60.5723 29.2126 61.0602 29.2126H64.0407V23.7541C64.0407 23.2662 64.0624 22.4716 64.0865 21.9837C64.0865 21.9837 64.1035 21.6432 64.2315 21.0973C64.3571 20.5539 64.572 20.0757 64.8715 19.6675C65.171 19.2593 65.5647 18.9357 66.055 18.7014C66.5453 18.4647 67.1443 18.3464 67.8519 18.3464C68.0886 18.3464 68.3326 18.3608 68.5862 18.3874L68.8398 18.414C69.0596 18.4502 69.2383 18.0831 69.2383 17.5976V15.7741C69.2383 15.5833 69.1972 15.3973 69.1296 15.2379V15.2331Z" fill="#007077"/>
<path d="M73.9747 14.7476H71.9024C71.4097 14.7476 71.0039 15.151 71.0039 15.6461V29.2078H73.9723C74.465 29.2078 74.8707 28.8044 74.8707 28.3093V14.7476H73.9723H73.9747Z" fill="#007077"/>
<path d="M44.5471 15.1293H41.487C40.9919 15.1293 40.4653 15.5157 40.3156 15.9867L37.8013 23.8846C37.6515 24.3556 37.5163 24.742 37.4994 24.742C37.4825 24.742 37.3496 24.3556 37.1975 23.8846L35.217 17.6653L34.9923 16.9625L34.6832 15.9867C34.6808 15.977 34.6759 15.9698 34.6735 15.9625L34.4054 15.1317H31.1255C30.6304 15.1317 30.3599 15.5133 30.5265 15.9794L34.8981 28.3625C35.0624 28.8286 35.6034 29.2102 36.0961 29.2102H39.6417L40.4484 26.8795L43.7911 17.3054L44.5495 15.1317L44.5471 15.1293Z" fill="#007077"/>
<path d="M24.725 22.0297C25.2322 22.0297 25.5148 21.6336 25.3482 21.1481L23.3894 15.407C23.2251 14.9216 23.0754 14.5255 23.0609 14.5255C23.0464 14.5255 22.8943 14.9191 22.7228 15.4022L20.6988 21.1481C20.5297 21.6312 20.8051 22.0248 21.3147 22.0248H24.725V22.0297Z" fill="#007077"/>
<path d="M27.5243 27.4833L27.406 27.1307L27.1113 26.2588C26.9471 25.7733 26.3988 25.3772 25.8892 25.3772H20.1481C19.6554 25.3772 19.1216 25.7516 18.9357 26.2153C18.9308 26.2298 18.9212 26.2419 18.9163 26.2564L18.4526 27.5848L17.914 29.1136L17.8585 29.273H26.8094C26.8094 29.273 26.8215 29.273 26.8263 29.273H28.1378L27.5243 27.4857V27.4833Z" fill="#007077"/>
<path fill-rule="evenodd" clip-rule="evenodd" d="M0 0.531406H26.8094V0.528992C27.8697 0.528992 28.7392 1.39848 28.7392 2.45878V18.4985L25.7177 10.3591C25.539 9.87847 24.9762 9.4872 24.469 9.4872H21.7422C21.235 9.4872 20.6698 9.88089 20.4911 10.3591L14.1897 27.1452L13.4216 29.2706H1.92979C0.869494 29.2706 0 28.4011 0 27.3408V0.531406ZM22.4692 5.75855C22.299 5.75855 22.1474 5.866 22.091 6.02656L21.659 7.25691C21.5903 7.4524 21.7354 7.6571 21.9426 7.6571H23.9433C24.1135 7.6571 24.2651 7.54964 24.3215 7.38908L24.7535 6.15874C24.8221 5.96325 24.6771 5.75855 24.4699 5.75855H22.4692Z" fill="#007077"/>
<path d="M88.7947 23.6551C88.7392 23.4981 88.6715 23.346 88.5918 23.2059C88.5532 23.1358 88.5097 23.0682 88.4638 23.0006C88.3769 22.8726 88.2827 22.7494 88.1861 22.6335C87.9928 22.4016 87.7779 22.1939 87.5509 22.0127C87.4373 21.9234 87.319 21.8388 87.1958 21.7591C86.7128 21.4548 86.2176 21.2278 85.7249 21.0877C85.2419 20.95 84.8578 20.8534 84.5922 20.8027C83.684 20.5805 82.9498 20.3993 82.387 20.2544C81.8339 20.1143 81.3968 19.9718 81.0876 19.8318C80.7954 19.7013 80.5997 19.5588 80.5055 19.4139C80.4814 19.3777 80.4621 19.339 80.4452 19.298C80.392 19.1676 80.363 19.0082 80.363 18.8198C80.363 18.5468 80.4234 18.3222 80.5442 18.1507C80.607 18.0614 80.677 17.9768 80.7567 17.902C80.8364 17.8271 80.9258 17.7595 81.0224 17.6991C81.218 17.5783 81.4378 17.4914 81.6769 17.4431C82.3097 17.3151 82.9522 17.3585 83.4811 17.4624C83.7951 17.5252 84.0777 17.629 84.3192 17.7764C84.3796 17.8126 84.4352 17.8512 84.4883 17.8947C84.5946 17.9793 84.6912 18.0807 84.7757 18.1918C84.8168 18.2498 84.8578 18.3077 84.8941 18.3729C84.9665 18.4985 85.0245 18.6459 85.068 18.8077C85.1114 18.9719 85.1404 19.1555 85.1525 19.3559L85.1597 19.4791H87.5122C87.79 19.4791 88.0508 19.3632 88.232 19.1579C88.4131 18.9526 88.488 18.6821 88.4421 18.4188C88.3648 17.9768 88.2223 17.5759 88.0242 17.2233C87.7103 16.6629 87.2803 16.192 86.749 15.82L86.691 15.7789C86.1379 15.407 85.4955 15.1341 84.783 14.9674C83.4691 14.6607 82.003 14.6075 80.5756 14.9771C79.9114 15.151 79.3076 15.4191 78.7835 15.7789C78.2545 16.1412 77.8198 16.5977 77.4937 17.1387C77.2473 17.5493 77.0904 18.0179 77.0276 18.5372C77.0058 18.7087 76.9962 18.8898 76.9962 19.071C76.9962 19.2328 77.0034 19.3946 77.0203 19.5468C77.0686 20.0057 77.1918 20.4162 77.3874 20.7665C77.6459 21.2302 77.9912 21.6239 78.4115 21.933C78.7231 22.1625 79.0709 22.363 79.4452 22.5296C79.5708 22.5852 79.6988 22.6359 79.8293 22.6842C80.3461 22.875 80.8847 23.0368 81.4282 23.1672C81.6938 23.2397 81.9571 23.3073 82.218 23.3725C82.4788 23.4377 82.7397 23.5005 82.9981 23.5585C83.1261 23.5875 83.2493 23.6189 83.37 23.6479C83.7299 23.7421 84.0632 23.8459 84.3603 23.9619C84.7491 24.1116 85.0656 24.3 85.3022 24.5198C85.5269 24.7299 85.638 25.0004 85.638 25.3434C85.638 25.6622 85.5534 25.9279 85.3844 26.1308C85.2081 26.3433 84.9858 26.5124 84.7202 26.6307C84.4497 26.7539 84.155 26.8408 83.8434 26.8843C83.0633 26.9954 82.4015 26.9689 81.7615 26.8094C81.3871 26.7177 81.0562 26.5728 80.7809 26.3819C80.508 26.1936 80.2857 25.9424 80.1215 25.6356C80.0804 25.5608 80.0442 25.4811 80.0152 25.3965C80.0104 25.382 80.0056 25.3675 80.0032 25.353L79.9838 25.2878C79.9669 25.2371 79.95 25.1864 79.9379 25.1308C79.8993 24.9545 79.8776 24.7613 79.8752 24.556V24.3724H77.4961C77.2232 24.3724 76.9648 24.486 76.7836 24.684C76.6049 24.8797 76.5252 25.1405 76.5614 25.3965C76.6363 25.9086 76.786 26.3795 77.0106 26.7925C77.3584 27.435 77.8343 27.9688 78.4236 28.3818C78.583 28.4929 78.7593 28.6016 78.9743 28.7175L79.0346 28.7537C79.124 28.802 79.2182 28.8455 79.31 28.889C79.3583 28.9107 79.409 28.9325 79.4573 28.9542C79.5781 29.0073 79.7013 29.0556 79.8293 29.0991C79.8776 29.116 79.9235 29.1329 79.9718 29.1498C80.1553 29.2102 80.3123 29.2561 80.4596 29.2948C81.0321 29.4373 81.6238 29.529 82.218 29.5653C82.416 29.5773 82.6189 29.5822 82.8218 29.5822C83.0705 29.5822 83.3169 29.5749 83.5512 29.5604C84.2564 29.5194 84.9037 29.4107 85.4761 29.244C86.2418 29.0194 86.8939 28.6982 87.4132 28.2924C87.674 28.0895 87.9059 27.8625 88.1039 27.6186C88.203 27.4954 88.2948 27.3674 88.3769 27.2369C88.459 27.1065 88.5339 26.9664 88.6015 26.8264C88.6667 26.6863 88.7271 26.5414 88.7754 26.394C88.9251 25.9544 89 25.4835 89 24.9932C89 24.5029 88.93 24.0391 88.7899 23.6479L88.7947 23.6551Z" fill="#007077"/>
</svg>
